<svg width="400" height="300" viewBox="0 0 400 300" fill="none" xmlns="http://www.w3.org/2000/svg">
  <!-- Main Window -->
  <rect x="50" y="40" width="300" height="220" rx="8" fill="#1F1F1F" stroke="#404040" stroke-width="2"/>
  
  <!-- Header/Browser Bar -->
  <path d="M50 48C50 43.5817 53.5817 40 58 40H342C346.418 40 350 43.5817 350 48V64H50V48Z" fill="#262626"/>
  <circle cx="65" cy="52" r="3" fill="#F87171"/>
  <circle cx="75" cy="52" r="3" fill="#FBBF24"/>
  <circle cx="85" cy="52" r="3" fill="#34D399"/>
  <rect x="100" y="47" width="120" height="10" rx="2" fill="#404040"/>
  <line x1="50" y1="64" x2="350" y2="64" stroke="#404040" stroke-width="2"/>

  <!-- Sidebar -->
  <rect x="50" y="64" width="80" height="196" fill="#262626"/>
  <rect x="60" y="75" width="40" height="4" rx="2" fill="#404040"/>
  <rect x="60" y="90" width="60" height="4" rx="2" fill="#404040"/>
  <rect x="60" y="100" width="50" height="4" rx="2" fill="#404040"/>
  <rect x="60" y="110" width="55" height="4" rx="2" fill="#404040"/>
  <line x1="130" y1="64" x2="130" y2="260" stroke="#404040" stroke-width="2"/>

  <!-- Main Content Area -->
  <rect x="150" y="80" width="180" height="30" rx="4" fill="url(#grad1Dark)" fill-opacity="0.2"/>
  <rect x="150" y="125" width="120" height="4" rx="2" fill="#404040"/>
  <rect x="150" y="135" width="180" height="4" rx="2" fill="#404040"/>
  <rect x="150" y="145" width="160" height="4" rx="2" fill="#404040"/>
  
  <!-- "Add New" Button hints -->
  <rect x="200" y="180" width="80" height="24" rx="4" fill="#404040"/>
  <circle cx="215" cy="192" r="4" fill="#737373"/>

  <!-- Gradients -->
  <defs>
    <linearGradient id="grad1Dark" x1="0%" y1="0%" x2="100%" y2="0%">
      <stop offset="0%" style="stop-color:#818CF8" />
      <stop offset="50%" style="stop-color:#C084FC" />
      <stop offset="100%" style="stop-color:#F472B6" />
    </linearGradient>
  </defs>
</svg>
