<svg width="900" height="900" viewBox="0 0 900 900" fill="none" xmlns="http://www.w3.org/2000/svg">
<rect width="900" height="900" fill="white"/>
<path d="M158 800V790L191 780C203 776.667 211.667 770.333 217 761C222.333 751 225 739.333 225 726V245C217.667 229 211.667 217 207 209C203 201 198.333 194.333 193 189C187.667 183 180.333 175.667 171 167L154 150V140H331L663 593V216C663 202.667 660.667 190.667 656 180C652 169.333 643.333 162.333 630 159L597 150V140H740V150L713 159C701 163 693.667 170 691 180C688.333 190 687 201.667 687 215V803H631L249 278V726C249 739.333 251 750.667 255 760C259 769.333 267.333 776 280 780L310 790V800H158Z" fill="black"/>
</svg>

